<svg width="28" height="16" viewBox="0 0 28 16" fill="none" xmlns="http://www.w3.org/2000/svg">
<path d="M26.9998 14.47L26.9098 14.3C26.1951 13.1778 25.3191 12.1669 24.3098 11.3C23.7298 10.7467 23.3631 10.3733 23.2098 10.18C22.8857 9.87685 22.8002 9.39637 22.9998 9.00001C23.3428 8.36548 23.7518 7.76886 24.2198 7.22001L25.0998 6.06001C26.6665 3.97335 27.3331 2.64001 27.0998 2.06001L26.9998 1.94001C26.8907 1.82939 26.7517 1.75294 26.5998 1.72001C26.3129 1.66044 26.0168 1.66044 25.7298 1.72001H21.8098C21.7214 1.69576 21.6282 1.69576 21.5398 1.72001H21.2398C21.1821 1.75772 21.1314 1.80508 21.0898 1.86001C21.0314 1.93255 20.9842 2.01345 20.9498 2.10001C20.5418 3.15571 20.0537 4.17868 19.4898 5.16001C19.1565 5.72001 18.8465 6.20668 18.5598 6.62001C18.3486 6.94237 18.1111 7.24674 17.8498 7.53001C17.6878 7.69879 17.5141 7.85586 17.3298 8.00001C17.1765 8.12001 17.0598 8.17001 16.9798 8.15001L16.7498 8.10001C16.62 8.01823 16.5133 7.90463 16.4398 7.77001C16.3538 7.60489 16.2996 7.42512 16.2798 7.24001V2.60001C16.3003 2.39385 16.3003 2.18617 16.2798 1.98001C16.2493 1.82869 16.2024 1.68114 16.1398 1.54001C16.082 1.40424 15.9844 1.28918 15.8598 1.21001C15.7169 1.12612 15.5617 1.06536 15.3998 1.03001C14.7924 0.957852 14.1792 0.9478 13.5698 1.00001C12.4754 0.909242 11.3736 1.02111 10.3198 1.33001C10.123 1.43392 9.94677 1.57286 9.79981 1.74001C9.63314 1.94001 9.60981 2.05001 9.72981 2.07001C10.1804 2.10172 10.5988 2.31457 10.8898 2.66001L10.9698 2.82001C11.0596 3.02112 11.1234 3.23281 11.1598 3.45001C11.2264 3.77962 11.2665 4.11402 11.2798 4.45001C11.3254 5.01576 11.3254 5.58426 11.2798 6.15001C11.2331 6.62335 11.1898 6.99001 11.1498 7.25001C11.1224 7.4712 11.0617 7.68698 10.9698 7.89001C10.9229 7.99329 10.8694 8.09349 10.8098 8.19001L10.7398 8.26001C10.622 8.30657 10.4965 8.33032 10.3698 8.33001C10.2011 8.3134 10.0411 8.2473 9.90981 8.14001C9.70346 7.98916 9.51551 7.81464 9.34981 7.62001C9.10488 7.32848 8.88415 7.01745 8.68981 6.69001C8.44314 6.29001 8.18981 5.81668 7.92981 5.27001L7.70981 4.88001C7.57648 4.62668 7.38981 4.25668 7.14981 3.77001C6.90981 3.28335 6.70315 2.80668 6.52981 2.34001C6.46842 2.1625 6.35303 2.00865 6.19981 1.90001H6.12981C6.06472 1.83618 5.99059 1.78227 5.90981 1.74001C5.81018 1.69849 5.70619 1.6683 5.59981 1.65001L1.86981 1.68001C1.58791 1.65377 1.3081 1.74825 1.09981 1.94001L0.999812 2.00001C0.981183 2.07216 0.981183 2.14786 0.999812 2.22001C1.00449 2.34709 1.03157 2.47235 1.07981 2.59001C1.62648 3.88335 2.21981 5.12335 2.85981 6.31001C3.49981 7.49668 4.05314 8.45335 4.51981 9.18001C4.99314 9.90668 5.48648 10.5933 5.99981 11.24C6.51314 11.8867 6.84648 12.3 6.99981 12.48L7.36981 12.89L7.70981 13.22C8.02214 13.5059 8.35651 13.7667 8.70981 14C9.16089 14.3236 9.62816 14.624 10.1098 14.9C10.6735 15.2151 11.275 15.457 11.8998 15.62C12.55 15.8019 13.2256 15.8762 13.8998 15.84H15.4698C15.7388 15.8332 15.9956 15.7262 16.1898 15.54L16.2398 15.47C16.2855 15.3922 16.3192 15.3079 16.3398 15.22C16.3564 15.0972 16.3564 14.9728 16.3398 14.85C16.3284 14.4977 16.3586 14.1453 16.4298 13.8C16.4741 13.5541 16.5515 13.3152 16.6598 13.09C16.737 12.9436 16.8346 12.8089 16.9498 12.69C17.0176 12.6138 17.0949 12.5465 17.1798 12.49H17.2898C17.5654 12.4295 17.8531 12.5079 18.0598 12.7C18.3689 12.9271 18.6478 13.1925 18.8898 13.49C19.1498 13.8033 19.4598 14.1533 19.8198 14.54C20.1222 14.8638 20.4573 15.1553 20.8198 15.41L21.0898 15.57C21.314 15.6973 21.5523 15.798 21.7998 15.87C22.0432 15.9572 22.3046 15.9813 22.5598 15.94L26.0398 15.89C26.3168 15.9045 26.5927 15.8459 26.8398 15.72C26.9962 15.6446 27.1179 15.5122 27.1798 15.35C27.2135 15.1985 27.2135 15.0415 27.1798 14.89C27.1597 14.7667 27.1262 14.646 27.0798 14.53L26.9998 14.47Z" fill="white"/>
</svg>
